<?xml version="1.0" standalone="no"?>
<!DOCTYPE svg PUBLIC "-//W3C//DTD SVG 20010904//EN"
 "http://www.w3.org/TR/2001/REC-SVG-20010904/DTD/svg10.dtd">
<svg version="1.0" xmlns="http://www.w3.org/2000/svg"
 width="195.000000pt" height="183.000000pt" viewBox="0 0 195.000000 183.000000"
 preserveAspectRatio="xMidYMid meet">

<g transform="translate(0.000000,183.000000) scale(0.100000,-0.100000)"
fill="#000000" stroke="none">
<path d="M0 1658 c1 -221 20 -207 25 18 3 129 2 154 -11 154 -12 0 -14 -28
-14 -172z"/>
<path d="M56 1788 c-6 -48 -13 -238 -9 -238 10 0 26 52 29 99 11 150 11 181
-2 181 -8 0 -15 -18 -18 -42z"/>
<path d="M120 1776 c0 -29 -3 -75 -6 -102 -6 -47 -6 -48 11 -32 26 24 35 188
11 188 -13 0 -16 -12 -16 -54z"/>
<path d="M190 1773 c0 -50 2 -55 15 -43 8 8 17 34 21 58 6 38 5 42 -15 42 -19
0 -21 -6 -21 -57z"/>
<path d="M293 1802 c-12 -15 -36 -43 -53 -62 -18 -19 -54 -62 -82 -95 -28 -33
-54 -62 -57 -65 -4 -3 -28 -30 -54 -61 -42 -50 -47 -61 -47 -105 0 -54 17 -50
22 5 4 41 24 52 30 16 4 -17 1 -25 -8 -25 -17 0 -19 -26 -3 -36 15 -9 29 14
29 49 0 15 4 27 9 27 6 0 11 19 13 42 2 23 8 43 15 45 17 6 21 -38 5 -63 -11
-18 -10 -22 2 -27 17 -7 28 15 30 58 1 18 6 29 14 28 8 -2 12 10 12 35 0 35
14 72 23 62 3 -3 7 -16 9 -30 2 -17 -1 -24 -11 -22 -9 2 -11 -3 -7 -13 3 -9 6
-23 6 -31 0 -8 4 -14 9 -14 12 0 24 40 22 73 -2 22 2 27 20 27 18 0 20 4 16
27 -5 27 10 83 22 83 7 0 31 -44 31 -55 0 -3 -6 -5 -14 -5 -12 0 -13 -12 -7
-55 1 -5 10 1 21 15 12 16 17 34 13 52 -6 31 11 60 32 52 9 -4 12 1 10 13 -2
10 -4 33 -4 51 -1 26 -5 32 -23 32 -13 0 -33 -12 -45 -28z"/>
<path d="M415 1820 c4 -6 11 -8 16 -5 14 9 11 15 -7 15 -8 0 -12 -5 -9 -10z"/>
<path d="M425 1702 c-72 -70 -197 -191 -278 -270 -140 -135 -147 -144 -146
-180 1 -36 2 -36 8 -7 13 59 18 0 10 -125 -12 -194 -11 -272 3 -268 19 7 36
86 36 166 -1 43 2 92 7 111 5 23 3 36 -5 41 -9 6 -10 18 0 56 6 27 14 61 17
77 9 45 23 30 18 -20 -2 -27 -7 -128 -11 -226 -6 -161 -5 -177 10 -171 9 3 16
7 16 8 0 0 5 100 10 221 8 176 13 222 25 231 8 6 15 21 15 32 0 11 5 24 11 28
8 5 10 -23 5 -102 -15 -272 -18 -384 -10 -384 29 1 32 24 41 247 8 196 12 235
26 251 9 10 17 28 17 40 0 11 5 24 11 28 9 5 10 -60 5 -260 -7 -262 -7 -267
12 -255 18 11 19 29 25 262 l6 250 25 26 c14 15 26 34 26 43 0 23 11 48 21 48
5 0 6 -129 2 -291 l-6 -291 21 11 c20 11 21 19 24 286 l3 274 37 38 c20 21 38
51 40 66 2 15 8 27 13 27 6 0 11 -111 12 -308 1 -169 2 -311 2 -315 1 -4 10
-3 21 3 19 10 20 21 20 315 0 197 4 305 10 305 6 0 10 -28 11 -62 1 -77 17
-127 19 -58 l1 45 13 -35 c17 -48 76 -158 76 -142 0 6 4 12 10 12 5 0 7 -7 4
-15 -3 -8 -2 -20 2 -26 11 -18 24 19 17 49 -3 12 0 22 6 22 6 0 10 3 10 8 -4
21 3 30 26 36 14 4 25 11 25 17 0 6 -4 7 -10 4 -5 -3 -10 -2 -10 3 0 6 -8 13
-17 16 -20 8 -37 -15 -20 -26 9 -6 8 -8 -2 -8 -7 0 -11 -6 -7 -15 3 -9 0 -15
-10 -15 -8 0 -13 4 -9 10 3 5 -9 13 -26 17 -26 7 -35 17 -51 61 -22 59 -18 93
7 72 13 -11 15 -3 15 64 l0 76 -52 0 -53 0 -130 -128z m300 -192 c-3 -5 -13
-10 -21 -10 -8 0 -12 5 -9 10 3 6 13 10 21 10 8 0 12 -4 9 -10z"/>
<path d="M700 1740 c0 -79 2 -91 20 -100 19 -10 20 -8 21 52 0 35 2 80 5 101
4 34 3 37 -21 37 -25 0 -25 0 -25 -90z"/>
<path d="M803 1800 c6 -17 14 -25 18 -19 5 8 8 8 10 0 5 -13 39 -4 39 10 0 5
-9 9 -20 9 -11 0 -23 7 -26 15 -4 8 -12 15 -19 15 -11 0 -11 -6 -2 -30z"/>
<path d="M924 1783 c5 -47 9 -156 7 -201 0 -13 -5 -21 -10 -18 -5 4 -7 -4 -3
-16 3 -12 1 -19 -5 -15 -13 8 -9 -50 5 -83 6 -14 11 -19 11 -12 1 7 5 11 10 8
18 -12 18 20 -1 47 -11 15 -15 27 -9 27 6 0 11 13 11 29 0 16 6 32 13 34 8 4
8 6 0 6 -14 1 -5 41 11 41 6 0 18 5 26 10 12 8 13 12 2 19 -12 7 -18 49 -21
149 -1 17 -7 22 -27 22 -25 0 -26 -2 -20 -47z"/>
<path d="M1240 1814 c0 -13 -7 -15 -29 -11 -19 4 -33 1 -41 -8 -10 -13 -8 -15
16 -15 21 0 25 -3 15 -9 -12 -8 -12 -12 -2 -25 10 -12 11 -19 2 -29 -6 -8 -8
-16 -5 -19 5 -6 -51 -28 -70 -28 -6 0 -2 7 8 15 14 11 16 15 5 15 -12 0 -12 2
1 10 10 6 11 10 3 10 -9 0 -10 7 -2 26 8 24 8 25 -6 14 -8 -7 -13 -16 -10 -20
3 -5 1 -11 -4 -15 -6 -3 -7 -13 -4 -22 4 -10 2 -14 -4 -10 -6 4 -14 0 -17 -9
-14 -36 -5 -51 44 -73 28 -12 51 -26 51 -29 1 -4 3 -17 4 -30 1 -12 10 -31 19
-41 24 -27 21 -52 -6 -47 -13 3 -29 5 -36 5 -10 1 -10 6 -2 22 11 19 10 20 -9
9 -12 -6 -21 -14 -21 -19 0 -5 -17 -11 -37 -14 -21 -3 -46 -8 -55 -12 -14 -6
-18 1 -24 44 -4 28 -10 51 -15 51 -5 0 -9 12 -9 28 -1 25 -2 23 -17 -13 -8
-22 -17 -62 -19 -89 -2 -27 -6 -51 -8 -54 -3 -3 6 -18 19 -34 23 -28 24 -31 9
-54 -9 -13 -24 -24 -33 -24 -9 0 -23 -5 -31 -10 -12 -8 -11 -13 8 -33 25 -27
29 -52 7 -61 -27 -10 -17 -27 13 -19 15 4 44 7 65 6 43 -1 41 6 -6 22 -19 6
-31 17 -30 25 4 37 33 95 47 98 9 2 16 14 16 28 0 17 8 27 26 34 32 13 43 12
24 0 -13 -9 -13 -11 0 -21 12 -9 11 -10 -7 -6 -27 6 -30 -5 -8 -23 12 -10 13
-15 4 -20 -15 -10 -3 -30 19 -30 15 0 15 -2 2 -10 -12 -8 -10 -10 10 -11 14
-1 31 -2 38 -2 6 1 12 -3 12 -7 0 -6 73 -22 115 -24 6 -1 13 -8 17 -16 4 -8 7
8 7 35 1 36 4 46 11 35 5 -8 10 -29 10 -46 0 -19 6 -34 15 -38 12 -4 15 3 15
37 0 36 4 44 29 58 27 16 30 15 67 -7 21 -13 42 -24 45 -24 4 0 22 24 40 54
19 30 42 57 51 59 15 4 17 13 12 54 -4 26 -8 50 -10 52 -2 2 -65 -24 -141 -57
-136 -60 -137 -60 -148 -39 -17 33 -8 51 38 70 23 10 58 31 77 48 34 29 34 30
7 20 -38 -15 -47 -14 -47 4 0 9 -9 15 -24 15 -30 0 -32 5 -47 153 -12 113 -13
117 -36 117 -15 0 -23 -6 -23 -16z m107 -305 c-29 -8 -31 -5 -17 21 11 21 12
21 25 3 12 -16 11 -19 -8 -24z m-332 -38 c3 -6 -1 -11 -10 -11 -21 0 -36 41
-22 59 9 11 13 8 18 -12 4 -14 10 -30 14 -36z m170 -41 c0 -17 -27 -24 -62
-15 -21 5 -23 8 -12 21 16 19 74 15 74 -6z m-174 -31 c-9 -22 -10 -22 -10 -3
-1 11 2 24 6 27 12 12 14 0 4 -24z m119 -20 c0 -6 -4 -7 -10 -4 -5 3 -10 11
-10 16 0 6 5 7 10 4 6 -3 10 -11 10 -16z m351 4 c-5 -10 -16 -27 -24 -37 -14
-19 -16 -19 -42 -2 -31 21 -27 33 6 16 20 -11 25 -9 42 14 21 30 33 35 18 9z
m-291 -18 c-7 -8 -20 -15 -28 -15 -13 0 -12 3 4 15 25 19 40 19 24 0z"/>
<path d="M1696 1698 c38 -409 65 -733 61 -747 -2 -9 -7 16 -11 54 -8 79 -16
107 -23 88 -7 -19 -21 -16 -26 5 -4 16 -5 16 -6 0 -1 -23 -17 -23 -29 -1 -9
15 -11 15 -26 1 -9 -9 -16 -31 -16 -48 0 -23 -5 -33 -20 -37 -11 -3 -18 -8
-15 -12 2 -4 -10 -5 -27 -3 -19 3 -29 1 -25 -5 7 -10 -22 -25 -73 -38 -19 -5
-22 -4 -10 4 8 6 23 11 32 11 10 0 22 8 27 19 8 14 5 23 -14 41 -24 23 -45 20
-45 -6 0 -8 -4 -14 -8 -14 -13 0 -33 -48 -22 -52 5 -2 -18 -4 -51 -5 -53 -2
-58 -1 -45 12 8 8 23 15 33 15 15 0 18 7 15 43 -2 33 3 51 27 87 19 27 26 47
20 51 -18 11 -63 -3 -81 -25 -10 -11 -18 -16 -18 -9 0 6 5 15 11 19 8 4 4 13
-12 25 -37 28 -42 23 -33 -33 4 -29 8 -61 8 -70 0 -9 3 -15 7 -12 4 2 6 -7 5
-21 0 -14 -4 -25 -8 -25 -5 0 -8 -8 -8 -17 0 -15 -2 -16 -10 -3 -8 13 -10 13
-10 -2 0 -9 4 -18 10 -20 5 -2 6 -9 1 -17 -5 -8 -16 -11 -26 -7 -12 4 -14 10
-7 19 13 16 26 177 18 222 -4 22 -13 35 -22 35 -8 0 -28 7 -44 15 -17 9 -30
11 -30 6 0 -6 -7 -8 -15 -5 -8 4 -15 4 -15 0 0 -3 19 -10 41 -16 23 -6 51 -20
63 -31 15 -14 16 -18 5 -14 -11 4 -22 -1 -32 -15 -17 -24 -117 -42 -117 -21 0
8 11 10 35 5 34 -6 50 8 23 19 -10 4 -9 8 2 16 8 6 11 11 5 11 -5 1 -26 2 -47
4 -27 2 -35 -1 -31 -11 3 -8 -2 -13 -14 -13 -10 0 -26 -9 -36 -20 -17 -20 -16
-20 8 -14 15 4 25 2 25 -5 0 -10 -46 -16 -100 -12 -20 1 -22 -1 -10 -9 8 -5
23 -10 33 -10 19 0 58 -20 69 -35 4 -6 20 -5 42 3 26 10 41 10 56 2 26 -14 25
-28 -3 -39 -26 -10 -61 -57 -60 -81 0 -8 -4 -21 -10 -27 -5 -7 -6 -13 -3 -13
4 0 1 -7 -8 -15 -13 -14 -18 -12 -42 10 -15 14 -35 25 -45 25 -11 0 -19 6 -19
13 -1 15 -68 67 -88 67 -15 0 -57 47 -57 65 -1 22 -16 31 -45 27 -19 -3 -30 0
-30 7 0 7 -5 9 -11 5 -6 -4 -7 -9 -2 -13 19 -13 43 -57 44 -81 1 -18 3 -20 6
-6 4 16 9 14 39 -15 18 -17 31 -36 28 -41 -8 -12 10 -10 23 3 17 17 30 3 35
-35 3 -28 1 -33 -9 -24 -22 18 -38 -5 -23 -32 8 -15 8 -20 1 -16 -24 15 -59
16 -64 1 -4 -8 -15 -12 -27 -10 -15 3 -20 0 -17 -9 4 -10 -1 -12 -15 -8 -20 5
-20 6 8 29 16 12 38 23 49 23 12 0 15 3 10 9 -15 14 -50 18 -48 5 1 -7 -8 -9
-22 -6 -29 5 -31 14 -10 32 9 7 14 19 11 27 -10 24 25 14 56 -17 31 -32 48
-38 48 -17 0 6 -16 23 -35 36 -19 13 -35 28 -35 33 0 5 -5 6 -10 3 -6 -3 -18
1 -27 11 -17 16 -18 16 -23 -7 -4 -13 -2 -27 3 -30 10 -7 -7 -46 -17 -41 -20
8 -24 -2 -10 -24 9 -14 23 -23 30 -20 8 3 14 -1 14 -9 0 -8 -7 -15 -15 -15
-20 0 -19 -10 4 -39 17 -22 21 -23 48 -12 31 12 83 1 83 -18 0 -5 3 -16 6 -24
4 -12 0 -14 -18 -10 -21 6 -22 5 -9 -10 8 -10 9 -17 3 -17 -6 0 -16 8 -21 18
-6 9 -11 12 -11 7 0 -6 -15 -11 -32 -10 -25 0 -32 4 -30 17 3 18 -32 43 -48
33 -6 -3 -10 -12 -10 -20 0 -7 -7 -16 -16 -19 -13 -5 -14 -4 -5 7 6 8 8 27 5
44 -3 17 -1 33 4 37 11 7 -7 56 -20 56 -5 0 -8 -24 -8 -52 0 -60 -14 -94 -24
-61 -4 11 -4 39 -1 62 3 23 1 40 -3 37 -5 -3 -6 8 -4 25 3 23 0 29 -13 29 -14
0 -16 -6 -12 -29 3 -16 1 -34 -6 -41 -9 -10 -9 -11 2 -5 11 6 12 1 8 -26 -4
-19 -9 -46 -11 -62 -3 -15 -8 -32 -11 -37 -3 -5 0 -18 7 -29 9 -15 9 -23 -1
-35 -9 -11 -10 -16 -2 -16 6 0 11 -9 11 -20 0 -11 -4 -20 -10 -20 -5 0 -10 -4
-10 -9 0 -4 12 -6 28 -4 26 4 26 4 8 -11 -11 -9 -28 -16 -37 -16 -21 0 -33
-16 -19 -25 6 -4 8 -11 5 -16 -4 -5 -2 -9 4 -9 6 0 8 -7 5 -15 -4 -8 -2 -15 4
-15 5 0 12 6 15 14 3 7 15 16 26 19 12 3 19 1 15 -4 -3 -5 -11 -9 -18 -9 -11
0 -20 -12 -44 -62 -2 -5 1 -8 6 -8 6 0 13 9 17 20 5 16 10 18 31 8 18 -8 23
-17 18 -31 -6 -18 -5 -18 21 -1 l28 18 -17 -31 c-11 -23 -13 -34 -5 -39 6 -3
15 0 20 7 7 11 9 10 9 -3 0 -10 6 -18 14 -18 8 0 17 -11 20 -25 4 -14 11 -25
16 -25 5 0 6 7 3 17 -4 11 -3 14 5 9 8 -5 8 2 0 26 -6 18 -14 35 -18 38 -11 8
-31 49 -40 82 -9 28 -8 29 25 22 39 -7 78 3 72 19 -4 12 -35 18 -97 16 -25 -1
-52 -1 -60 -2 -8 0 -18 -4 -21 -9 -7 -10 -39 0 -39 13 0 5 15 8 33 7 17 0 38
0 45 1 16 1 16 28 0 34 -7 2 1 8 17 12 94 22 108 42 50 69 -19 9 -35 21 -35
26 0 13 -33 0 -43 -17 -13 -22 -27 -15 -18 10 6 16 17 22 42 23 19 1 42 4 52
9 10 4 24 2 33 -6 9 -7 45 -27 80 -44 54 -26 64 -29 64 -15 0 10 13 27 30 40
16 12 34 38 41 57 7 23 16 33 27 31 13 -2 18 -16 20 -58 4 -65 -18 -127 -55
-160 -22 -19 -25 -20 -19 -4 20 49 20 50 -1 31 -25 -22 -33 -22 -34 1 0 14 -2
14 -9 -3 -7 -18 -8 -17 -11 9 -2 16 -10 32 -18 34 -9 3 -11 0 -6 -8 5 -9 4
-11 -4 -6 -6 4 -18 0 -27 -8 -8 -9 -24 -16 -34 -16 -32 0 -33 -19 -1 -38 17
-9 31 -21 31 -27 0 -5 4 -4 8 3 13 20 35 5 54 -36 32 -69 46 -110 41 -116 -3
-3 -1 -12 5 -19 6 -7 13 -32 14 -55 2 -23 6 -42 11 -42 8 0 9 10 7 69 -1 27 3
47 12 52 10 7 11 12 1 29 -16 24 -18 74 -3 50 9 -13 10 -13 10 0 0 18 37 47
90 71 l38 17 5 -24 c2 -14 -1 -31 -9 -38 -10 -10 -10 -16 -1 -25 9 -9 4 -11
-23 -6 -19 3 -38 11 -42 18 -6 9 -8 9 -8 0 0 -6 13 -20 30 -30 32 -19 41 -37
13 -26 -17 7 -17 5 0 -21 18 -27 18 -27 -2 -16 -12 6 -21 8 -21 4 0 -3 -11 1
-24 10 -17 10 -27 12 -31 5 -4 -6 2 -13 14 -16 12 -3 21 -9 21 -12 0 -4 20
-22 45 -40 25 -18 45 -30 45 -26 0 9 64 -27 77 -44 7 -9 13 -22 13 -30 0 -11
-4 -10 -14 4 -8 12 -19 16 -31 12 -13 -6 -16 -14 -11 -40 8 -42 -17 -68 -71
-74 -52 -6 -55 -13 -4 -13 23 0 58 7 78 15 20 9 50 15 67 14 17 -1 48 5 70 14
21 10 47 17 56 17 10 0 20 5 22 10 4 12 175 16 236 5 30 -6 42 -12 42 -25 0
-11 10 -20 25 -24 24 -6 36 -26 15 -26 -5 0 -10 5 -10 10 0 6 -6 10 -14 10
-10 0 -13 -7 -11 -20 2 -11 0 -18 -5 -15 -5 3 -7 14 -5 25 4 21 -9 27 -20 10
-9 -15 -38 -13 -29 3 4 6 -2 4 -13 -6 -16 -14 -22 -15 -27 -5 -3 7 -3 0 0 -17
4 -25 3 -27 -5 -9 -5 12 -19 24 -31 27 l-22 6 21 -20 c11 -11 21 -25 20 -32 0
-9 -2 -9 -6 1 -6 16 -24 16 -21 -1 2 -6 -3 -11 -9 -9 -7 1 -13 -3 -13 -9 0 -6
-6 -9 -12 -6 -7 2 -23 -4 -34 -15 -12 -10 -31 -20 -43 -21 -11 -1 -21 -4 -21
-7 0 -9 -53 -6 -68 4 -8 5 -12 0 -12 -13 0 -20 6 -20 321 -21 l321 0 -3 112
c-1 67 -7 116 -13 121 -8 6 -7 10 2 14 9 4 12 147 12 669 0 585 -2 663 -15
658 -22 -9 -113 -126 -131 -169 -8 -21 -17 -36 -19 -34 -1 2 -11 69 -20 149
-33 276 -39 305 -61 308 -20 3 -20 1 -8 -130z m134 -547 c0 -23 4 -32 13 -28
8 3 14 -4 14 -17 1 -11 7 -40 14 -63 6 -23 9 -56 7 -73 -3 -16 -1 -30 3 -30 5
0 6 -6 4 -12 -3 -7 1 -40 8 -74 7 -33 12 -77 12 -97 -1 -20 2 -37 6 -37 5 0 6
-21 3 -47 -4 -37 -3 -45 6 -33 9 13 11 12 7 -5 -15 -61 -17 -79 -9 -66 5 7 12
9 14 5 9 -18 9 -104 0 -104 -18 0 -35 60 -30 105 3 25 2 43 -2 40 -4 -2 -13
44 -19 103 -7 59 -21 146 -32 194 -11 48 -22 125 -24 170 -3 46 -8 94 -10 108
-4 19 -3 22 5 10 5 -8 10 -30 10 -49z m-713 -37 c-3 -3 -12 -4 -19 -1 -8 3 -5
6 6 6 11 1 17 -2 13 -5z m-310 -36 c-3 -8 -6 -5 -6 6 -1 11 2 17 5 13 3 -3 4
-12 1 -19z m533 -40 c0 -25 -3 -29 -10 -18 -13 20 -13 50 0 50 6 0 10 -15 10
-32z m325 2 c3 -5 -1 -10 -9 -10 -9 0 -16 5 -16 10 0 6 4 10 9 10 6 0 13 -4
16 -10z m-707 -107 c2 -7 -1 -13 -8 -13 -6 0 -9 4 -5 9 3 5 -3 12 -12 15 -15
4 -15 5 1 3 11 -1 21 -8 24 -14z m439 11 c-3 -3 -12 -4 -19 -1 -8 3 -5 6 6 6
11 1 17 -2 13 -5z m-53 -14 c-12 -5 -43 -11 -70 -14 -45 -5 -47 -5 -22 7 14 6
46 13 70 13 32 1 37 0 22 -6z m-427 -56 c-3 -3 -12 -4 -19 -1 -8 3 -5 6 6 6
11 1 17 -2 13 -5z m728 -169 c6 -146 19 -235 36 -235 8 0 10 21 8 158 0 50 3
92 8 92 4 0 8 -19 7 -42 -1 -24 1 -31 3 -15 4 24 6 25 19 13 8 -8 14 -21 14
-30 0 -8 4 -17 8 -20 5 -3 6 8 4 25 -2 16 -8 29 -13 29 -5 0 -9 4 -9 9 0 5 11
9 24 9 22 0 25 -6 31 -52 6 -54 23 -359 20 -363 -1 -2 -31 -5 -66 -6 l-65 -4
-3 40 c-1 27 3 43 15 52 12 8 14 14 6 19 -7 4 -12 2 -12 -5 0 -7 -3 -9 -6 -6
-4 4 -1 13 6 22 8 10 9 15 1 15 -6 0 -11 7 -11 17 0 14 -13 15 -128 10 -71 -3
-134 -2 -141 3 -18 11 -10 176 9 207 13 20 12 25 -13 51 l-27 28 20 24 c22 26
25 36 10 45 -5 3 -10 12 -10 19 0 13 229 58 242 47 4 -3 9 -73 13 -156z m129
87 c4 -45 3 -72 -2 -68 -5 3 -10 38 -11 78 -2 90 5 86 13 -10z m-740 2 c4 -10
1 -14 -6 -12 -15 5 -23 28 -10 28 5 0 13 -7 16 -16z m286 0 c0 -2 -19 -4 -42
-3 -31 0 -37 3 -24 8 18 7 66 3 66 -5z m0 -94 c10 -18 8 -20 -20 -20 -16 0
-30 5 -30 10 0 6 7 10 15 10 8 0 15 5 15 10 0 16 8 12 20 -10z m-632 -45 c-7
-7 -24 -16 -38 -20 -24 -6 -24 -6 5 18 30 25 59 26 33 2z m993 -94 c5 8 9 9 9
3 0 -6 -7 -17 -15 -24 -13 -11 -15 -8 -14 21 1 27 3 29 6 10 4 -19 7 -21 14
-10z m-158 -288 c-7 -2 -21 -2 -30 0 -10 3 -4 5 12 5 17 0 24 -2 18 -5z m110
-10 c-7 -2 -19 -2 -25 0 -7 3 -2 5 12 5 14 0 19 -2 13 -5z m-7 -136 c8 3 14 1
14 -5 0 -11 -18 -11 -37 1 -8 5 -13 3 -13 -4 0 -7 -3 -10 -6 -6 -3 3 -3 11 1
17 5 8 11 8 17 2 6 -6 17 -8 24 -5z"/>
<path d="M1731 454 c0 -11 3 -14 6 -6 3 7 2 16 -1 19 -3 4 -6 -2 -5 -13z"/>
<path d="M1676 445 c4 -8 10 -12 15 -9 14 8 10 24 -6 24 -9 0 -12 -6 -9 -15z"/>
<path d="M1680 320 c0 -5 5 -10 11 -10 5 0 7 5 4 10 -3 6 -8 10 -11 10 -2 0
-4 -4 -4 -10z"/>
<path d="M1688 293 c6 -2 18 -2 25 0 6 3 1 5 -13 5 -14 0 -19 -2 -12 -5z"/>
<path d="M420 1800 c-8 -5 -18 -6 -22 -4 -4 3 -8 -6 -8 -19 0 -32 30 -44 47
-21 23 32 12 62 -17 44z"/>
<path d="M790 1758 c0 -2 9 -11 20 -21 11 -9 20 -13 20 -7 0 5 -9 14 -20 20
-11 6 -20 9 -20 8z"/>
<path d="M1010 1650 c0 -5 4 -10 9 -10 6 0 13 5 16 10 3 6 -1 10 -9 10 -9 0
-16 -4 -16 -10z"/>
<path d="M670 1642 c0 -4 14 -13 30 -19 17 -6 30 -10 30 -7 0 2 -13 10 -30 19
-16 9 -30 12 -30 7z"/>
<path d="M1320 1609 c0 -5 5 -7 10 -4 6 3 10 8 10 11 0 2 -4 4 -10 4 -5 0 -10
-5 -10 -11z"/>
<path d="M1444 1596 c-10 -8 -16 -18 -11 -22 4 -4 7 -2 7 4 0 19 28 14 43 -8
12 -18 15 -18 35 -4 23 16 30 44 11 44 -6 0 -9 -7 -5 -15 3 -8 2 -15 -3 -15
-5 0 -14 7 -21 15 -16 19 -31 19 -56 1z"/>
<path d="M1045 1590 c-3 -6 1 -7 9 -4 18 7 21 14 7 14 -6 0 -13 -4 -16 -10z"/>
<path d="M1100 1586 c0 -2 11 -6 25 -8 13 -3 22 -1 19 3 -5 9 -44 13 -44 5z"/>
<path d="M1048 1563 c-10 -2 -18 -9 -18 -14 0 -6 8 -5 20 1 11 6 20 13 20 15
0 3 -1 4 -2 4 -2 -1 -11 -3 -20 -6z"/>
<path d="M1120 1558 c0 -5 9 -8 20 -8 11 0 20 -4 20 -10 0 -5 5 -10 10 -10 6
0 10 8 10 18 0 12 -8 17 -30 17 -16 0 -30 -3 -30 -7z"/>
<path d="M1094 1552 c5 -8 -1 -12 -18 -12 -19 0 -24 -5 -23 -20 1 -20 27 -29
27 -10 0 6 7 10 15 10 18 0 20 26 3 36 -7 4 -8 3 -4 -4z"/>
<path d="M862 1460 c0 -19 2 -27 5 -17 2 9 2 25 0 35 -3 9 -5 1 -5 -18z"/>
<path d="M800 1476 c0 -2 7 -6 15 -10 8 -3 15 -1 15 4 0 6 -7 10 -15 10 -8 0
-15 -2 -15 -4z"/>
<path d="M884 1457 c2 -15 8 -33 14 -39 18 -18 16 23 -2 48 -14 18 -15 18 -12
-9z"/>
<path d="M707 1414 c-4 -4 -7 -14 -7 -23 0 -11 3 -12 11 -4 6 6 10 16 7 23 -2
6 -7 8 -11 4z"/>
<path d="M796 1412 c-6 -10 2 -22 28 -42 18 -13 19 -13 14 0 -4 11 1 16 13 17
11 1 17 -2 14 -8 -4 -5 -1 -9 4 -9 6 0 11 -8 11 -19 0 -10 7 -24 15 -31 13
-11 15 -9 13 11 -2 13 -5 26 -8 29 -3 3 -10 16 -17 30 -8 20 -19 26 -46 28
-20 1 -38 -1 -41 -6z"/>
<path d="M759 1383 c-13 -16 -12 -17 4 -4 9 7 17 15 17 17 0 8 -8 3 -21 -13z"/>
<path d="M836 1335 c-4 -12 -14 -14 -41 -9 -23 4 -35 2 -35 -5 0 -6 3 -10 8
-9 4 1 18 -2 31 -6 18 -6 26 -4 33 8 5 9 16 16 24 16 8 0 12 5 9 10 -9 15 -22
12 -29 -5z"/>
<path d="M733 1303 c4 -3 -1 -15 -10 -26 -17 -19 -17 -19 2 -16 22 5 35 49 14
49 -7 0 -9 -3 -6 -7z"/>
<path d="M770 1275 c-7 -8 -9 -15 -6 -15 4 0 14 7 22 15 9 8 11 15 6 15 -5 0
-15 -7 -22 -15z"/>
<path d="M1590 1251 c0 -6 5 -13 10 -16 6 -3 10 1 10 9 0 9 -4 16 -10 16 -5 0
-10 -4 -10 -9z"/>
<path d="M755 1230 c-3 -5 -1 -10 4 -10 6 0 11 5 11 10 0 6 -2 10 -4 10 -3 0
-8 -4 -11 -10z"/>
<path d="M1560 1220 c0 -12 40 -33 48 -25 4 4 -2 13 -12 21 -23 16 -36 18 -36
4z"/>
<path d="M710 1169 c0 -5 5 -7 10 -4 6 3 10 8 10 11 0 2 -4 4 -10 4 -5 0 -10
-5 -10 -11z"/>
<path d="M825 1170 c-3 -5 1 -10 9 -10 9 0 16 5 16 10 0 6 -4 10 -9 10 -6 0
-13 -4 -16 -10z"/>
<path d="M1185 1170 c-3 -5 1 -10 10 -10 9 0 13 5 10 10 -3 6 -8 10 -10 10 -2
0 -7 -4 -10 -10z"/>
<path d="M860 1149 c0 -12 48 -31 69 -27 9 2 -3 11 -27 20 -23 9 -42 12 -42 7z"/>
<path d="M500 1030 c-47 -21 -105 -48 -130 -59 -53 -23 -254 -110 -324 -140
-52 -23 -52 -22 -30 -100 5 -17 4 -22 -4 -17 -14 8 -15 -6 -6 -53 4 -17 10
-31 15 -31 5 0 6 7 3 15 -4 8 -1 22 6 30 7 8 10 24 7 36 -4 15 -2 19 9 15 8
-3 14 -1 14 4 0 6 -5 10 -12 10 -9 0 -9 3 0 12 7 7 12 23 12 36 0 25 21 26 28
1 3 -11 2 -11 -7 1 -10 13 -11 13 -11 0 0 -8 9 -21 20 -28 17 -10 20 -10 20 3
0 9 7 18 15 21 8 4 15 19 15 35 0 41 26 27 33 -19 7 -40 1 -54 -13 -32 -7 11
-10 6 -10 -17 0 -18 5 -33 11 -33 5 0 8 -4 5 -9 -8 -12 4 -41 16 -41 6 0 8 9
5 21 -3 12 0 22 9 26 16 6 19 50 4 55 -13 4 0 48 15 48 8 0 10 -9 7 -26 -3
-17 -1 -25 5 -21 6 4 9 28 6 57 -4 41 -2 50 11 50 12 0 46 -56 46 -76 0 -10
-29 -2 -33 9 -12 29 -6 -18 9 -68 11 -39 19 -52 29 -48 8 3 12 9 9 14 -3 5
-10 7 -15 4 -5 -4 -4 5 3 19 6 14 17 26 25 26 7 0 13 11 13 25 0 14 5 25 11
25 7 0 8 18 4 54 -6 48 -5 55 13 65 23 12 32 6 32 -24 0 -13 7 -28 15 -35 13
-11 15 -7 15 24 0 34 1 35 20 24 25 -16 40 1 40 45 0 17 5 27 15 27 8 0 18 0
23 1 4 0 10 -10 14 -23 4 -16 6 -18 7 -5 1 9 5 17 11 17 8 0 50 70 50 85 0 9
-13 5 -100 -35z"/>
<path d="M641 1063 c-1 -6 -4 -20 -7 -30 -5 -17 -5 -17 6 0 6 10 9 23 6 30 -3
9 -5 9 -5 0z"/>
<path d="M556 935 c-9 -26 -7 -32 5 -12 6 10 9 21 6 23 -2 3 -7 -2 -11 -11z"/>
<path d="M476 891 c-5 -13 -4 -27 2 -33 14 -14 20 2 12 32 l-6 25 -8 -24z"/>
<path d="M373 827 c0 -21 5 -37 9 -37 4 0 8 -9 8 -21 0 -26 23 -50 39 -39 10
6 10 11 0 27 -9 15 -9 28 -1 52 11 32 8 36 -27 31 -8 -1 -17 4 -21 11 -5 7 -8
-4 -7 -24z"/>
<path d="M75 703 c11 -58 17 -60 31 -12 8 24 14 45 14 47 0 1 -12 2 -26 2 -25
0 -26 -2 -19 -37z"/>
<path d="M441 716 c-7 -8 -8 -17 -3 -20 6 -3 13 1 16 10 9 23 2 28 -13 10z"/>
<path d="M350 665 c-30 -7 -71 -16 -90 -19 -19 -3 -71 -13 -115 -21 -44 -8
-95 -18 -113 -21 l-32 -7 0 -83 c0 -78 1 -84 21 -84 15 0 20 6 19 23 -3 37 -1
49 10 42 5 -3 10 -20 10 -36 0 -28 2 -30 33 -27 29 3 32 6 32 36 0 17 3 32 7
32 5 0 8 -13 8 -29 0 -17 6 -31 16 -35 24 -9 62 -7 69 4 4 7 13 7 26 0 25 -14
39 -5 39 26 0 16 5 24 13 22 11 -4 13 -8 16 -44 1 -11 7 -13 21 -9 25 8 62 -3
55 -16 -3 -5 1 -6 10 -3 10 4 22 -1 30 -12 8 -11 15 -15 15 -11 0 4 -12 19
-26 32 -23 22 -26 32 -27 93 0 37 5 77 12 89 6 12 15 33 21 47 11 31 5 32 -80
11z m15 -25 c4 -6 -5 -10 -20 -10 -15 0 -24 4 -20 10 3 6 12 10 20 10 8 0 17
-4 20 -10z m-115 -26 c0 -2 -9 -4 -21 -4 -11 0 -18 4 -14 10 5 8 35 3 35 -6z
m-110 -14 c0 -5 -7 -10 -16 -10 -8 0 -12 5 -9 10 3 6 10 10 16 10 5 0 9 -4 9
-10z m240 -26 c0 -9 -11 -14 -30 -14 -34 0 -38 7 -13 25 20 15 43 9 43 -11z
m-122 -11 c2 -9 -7 -13 -28 -13 -28 0 -31 2 -20 15 15 18 41 16 48 -2z m-104
-8 c4 -11 -2 -15 -21 -15 -21 0 -24 2 -13 15 7 8 16 15 20 15 4 0 10 -7 14
-15z m-86 -13 c2 -7 -6 -12 -17 -12 -21 0 -27 11 -14 24 9 9 26 2 31 -12z
m291 -69 c1 -13 -3 -23 -7 -23 -5 0 -9 19 -10 43 0 32 1 37 8 22 5 -11 9 -30
9 -42z m-127 -5 c-8 -8 -9 -4 -5 13 4 13 8 18 11 10 2 -7 -1 -18 -6 -23z"/>
<path d="M519 638 c4 -12 14 -24 20 -26 8 -3 7 5 -4 22 -21 32 -27 33 -16 4z"/>
<path d="M540 580 c0 -5 4 -10 9 -10 6 0 13 5 16 10 3 6 -1 10 -9 10 -9 0 -16
-4 -16 -10z"/>
<path d="M1068 483 c7 -3 16 -2 19 1 4 3 -2 6 -13 5 -11 0 -14 -3 -6 -6z"/>
<path d="M431 466 c-8 -10 -9 -16 -1 -21 5 -3 10 1 10 11 0 13 3 14 13 5 14
-11 27 -6 27 11 0 13 -37 9 -49 -6z"/>
<path d="M780 460 c0 -13 11 -13 30 0 12 8 11 10 -7 10 -13 0 -23 -4 -23 -10z"/>
<path d="M1015 450 c-3 -5 1 -10 10 -10 9 0 13 5 10 10 -3 6 -8 10 -10 10 -2
0 -7 -4 -10 -10z"/>
<path d="M824 429 c-5 -8 1 -10 19 -5 14 3 29 1 32 -4 4 -6 11 -7 18 -3 7 4 4
9 -9 14 -29 11 -52 10 -60 -2z"/>
<path d="M833 403 c-7 -3 -13 -11 -13 -19 0 -17 -1 -17 -37 -4 l-28 10 24 -20
c31 -27 45 -25 60 6 13 29 12 33 -6 27z"/>
<path d="M396 385 c-3 -8 -1 -15 4 -15 13 0 22 18 11 24 -5 3 -11 -1 -15 -9z"/>
<path d="M356 375 c7 -18 6 -19 -11 -5 -17 14 -18 13 -12 -3 4 -12 3 -16 -4
-11 -6 3 -84 8 -172 10 -184 4 -177 -9 11 -20 143 -8 152 -11 145 -37 -5 -16
0 -19 34 -19 39 0 40 1 34 28 -5 25 -6 25 -9 5 -2 -13 -8 -23 -13 -23 -13 0
-11 44 3 58 9 9 9 15 -1 25 -10 10 -11 8 -5 -8z"/>
<path d="M860 369 c-7 -11 -10 -23 -7 -25 8 -8 38 8 48 27 8 16 6 19 -10 19
-11 0 -25 -9 -31 -21z"/>
<path d="M420 338 c0 -23 4 -29 18 -26 25 5 28 44 3 51 -18 4 -21 0 -21 -25z"/>
<path d="M771 306 c-1 -23 -5 -27 -20 -23 -33 8 -31 -26 2 -46 16 -10 32 -16
35 -13 2 3 0 29 -5 58 -7 36 -11 44 -12 24z"/>
<path d="M1076 323 c-11 -12 -6 -23 12 -24 14 0 14 -2 -3 -9 -18 -8 -17 -9 7
-9 15 -1 30 4 34 11 4 7 3 8 -4 4 -7 -4 -12 -1 -12 7 0 16 -24 30 -34 20z"/>
<path d="M910 311 c0 -5 -10 -12 -22 -14 -14 -3 -9 -5 15 -6 27 -1 37 3 37 14
0 8 -7 15 -15 15 -8 0 -15 -4 -15 -9z"/>
<path d="M1015 310 c-4 -6 5 -10 20 -10 15 0 24 4 20 10 -3 6 -12 10 -20 10
-8 0 -17 -4 -20 -10z"/>
<path d="M456 293 c-3 -7 -13 -13 -23 -13 -17 -1 -17 -1 0 -11 9 -5 22 -7 29
-3 6 4 22 8 36 10 l25 3 -24 -23 c-13 -13 -29 -21 -35 -19 -17 6 -28 -17 -15
-30 9 -9 14 -8 21 3 8 12 10 12 10 1 0 -8 -8 -20 -17 -27 -17 -11 -16 -13 7
-18 14 -2 66 -7 115 -10 50 -3 105 -8 122 -10 18 -3 35 -1 38 5 4 5 -5 9 -18
9 -33 0 -55 47 -31 65 12 8 15 18 9 31 -6 15 -8 16 -12 4 -6 -17 -32 -40 -46
-40 -4 0 -5 5 -2 10 8 13 -1 13 -25 0 -14 -8 -19 -5 -23 11 -3 12 -10 18 -16
14 -6 -3 -11 1 -11 10 0 12 -6 15 -19 10 -14 -4 -20 -1 -23 12 -4 21 -65 26
-72 6z"/>
<path d="M878 264 c-16 -8 -28 -16 -28 -18 0 -2 12 -3 28 -4 15 0 42 -3 60 -6
29 -5 31 -4 19 9 -8 8 -25 12 -38 10 -23 -4 -23 -4 -5 10 27 20 0 19 -36 -1z"/>
<path d="M1028 263 c7 -3 16 -2 19 1 4 3 -2 6 -13 5 -11 0 -14 -3 -6 -6z"/>
<path d="M790 191 c0 -5 -7 -17 -16 -25 -14 -15 -14 -16 5 -16 16 0 21 6 21
25 0 14 -2 25 -5 25 -3 0 -5 -4 -5 -9z"/>
<path d="M1390 180 c0 -5 7 -7 15 -4 8 4 15 8 15 10 0 2 -7 4 -15 4 -8 0 -15
-4 -15 -10z"/>
<path d="M990 138 c-8 -10 -37 -25 -65 -33 -43 -11 -46 -13 -19 -14 37 -1 134
28 134 41 0 4 -6 8 -14 8 -8 0 -16 4 -18 9 -1 5 -10 0 -18 -11z"/>
<path d="M1480 105 c-14 -16 -3 -20 19 -6 8 5 9 11 3 15 -5 3 -15 -1 -22 -9z"/>
<path d="M1381 53 c0 -12 2 -14 6 -4 5 11 7 11 15 0 8 -12 9 -12 6 0 -6 22
-28 25 -27 4z"/>
<path d="M575 10 c-3 -5 -1 -10 4 -10 6 0 11 5 11 10 0 6 -2 10 -4 10 -3 0 -8
-4 -11 -10z"/>
</g>
</svg>
